<svg width="211" height="186" viewBox="0 0 211 186" fill="none" xmlns="http://www.w3.org/2000/svg">
<g clip-path="url(#clip0)">
<path d="M9.80444 177.238C12.7312 182.97 18.9429 185.431 18.9429 185.431C18.9429 185.431 20.4093 178.598 17.4825 172.866C14.5558 167.135 8.34408 164.674 8.34408 164.674C8.34408 164.674 6.87766 171.507 9.80444 177.238Z" fill="#2F2E41"/>
<path d="M11.8161 175.353C17.1002 178.71 19.1352 185.378 19.1352 185.378C19.1352 185.378 12.6031 186.603 7.3191 183.246C2.03505 179.889 0 173.221 0 173.221C0 173.221 6.53208 171.996 11.8161 175.353Z" fill="#02A26B"/>
<path d="M130.285 8.92929H97.3163V9.42664H130.285V8.92929Z" fill="#F2F2F2"/>
<path d="M121.336 9.30229H120.865V13.9027H121.336V9.30229Z" fill="#F2F2F2"/>
<path d="M106.971 9.30229H106.501V13.9027H106.971V9.30229Z" fill="#F2F2F2"/>
<path d="M147.005 32.8018H114.036V33.2992H147.005V32.8018Z" fill="#F2F2F2"/>
<path d="M123.456 28.3257H122.985V32.9262H123.456V28.3257Z" fill="#F2F2F2"/>
<path d="M137.821 28.3257H137.35V32.9262H137.821V28.3257Z" fill="#F2F2F2"/>
<path d="M190.806 43.9921H157.838V44.4895H190.806V43.9921Z" fill="#F2F2F2"/>
<path d="M167.257 39.516H166.786V44.1165H167.257V39.516Z" fill="#F2F2F2"/>
<path d="M181.622 39.516H181.151V44.1165H181.622V39.516Z" fill="#F2F2F2"/>
<path d="M163.96 154.9H163.489V159.501H163.96V154.9Z" fill="#F2F2F2"/>
<path d="M178.325 154.9H177.854V159.501H178.325V154.9Z" fill="#F2F2F2"/>
<path d="M131.227 79.5523H98.2583V80.0497H131.227V79.5523Z" fill="#F2F2F2"/>
<path d="M107.678 75.0762H107.207V79.6766H107.678V75.0762Z" fill="#F2F2F2"/>
<path d="M122.043 75.0762H121.572V79.6766H122.043V75.0762Z" fill="#F2F2F2"/>
<path d="M118.04 135.006H117.569V139.607H118.04V135.006Z" fill="#F2F2F2"/>
<path d="M132.404 135.006H131.934V139.607H132.404V135.006Z" fill="#F2F2F2"/>
<path d="M170.79 116.853H170.319V121.454H170.79V116.853Z" fill="#F2F2F2"/>
<path d="M185.154 116.853H184.684V121.454H185.154V116.853Z" fill="#F2F2F2"/>
<path d="M136.273 176.289H80.5123V175.865H135.872V155.32H85.2L82.7384 149.904L83.1001 149.721L85.4524 154.896H136.273V176.289Z" fill="#2F2E41"/>
<path d="M87.9337 186.667C90.26 186.667 92.1458 184.676 92.1458 182.219C92.1458 179.763 90.26 177.771 87.9337 177.771C85.6073 177.771 83.7215 179.763 83.7215 182.219C83.7215 184.676 85.6073 186.667 87.9337 186.667Z" fill="#3F3D56"/>
<path d="M129.454 186.667C131.78 186.667 133.666 184.676 133.666 182.219C133.666 179.763 131.78 177.771 129.454 177.771C127.127 177.771 125.241 179.763 125.241 182.219C125.241 184.676 127.127 186.667 129.454 186.667Z" fill="#3F3D56"/>
<path d="M178.395 90.507C179.835 90.507 181.002 89.2742 181.002 87.7535C181.002 86.2328 179.835 85 178.395 85C176.955 85 175.787 86.2328 175.787 87.7535C175.787 89.2742 176.955 90.507 178.395 90.507Z" fill="#3F3D56"/>
<path d="M142.237 148.33H79.5615L66 101.521H156.203L156.121 101.796L142.237 148.33ZM79.8583 147.907H141.943L155.657 101.945H66.5422L79.8583 147.907Z" fill="#2F2E41"/>
<path d="M137.345 145.894H82.2945L70.3829 104.38H149.612L149.54 104.625L137.345 145.894Z" fill="#F2F2F2"/>
<path d="M157.327 97.3391L156.939 97.2304L159.587 86.6944H174.985V87.1181H159.895L157.327 97.3391Z" fill="#2F2E41"/>
<path d="M151.696 115.712H70.3825V116.136H151.696V115.712Z" fill="#2F2E41"/>
<path d="M147.039 131.319H74.904V131.742H147.039V131.319Z" fill="#2F2E41"/>
<path d="M111.301 101.733H110.9V148.118H111.301V101.733Z" fill="#2F2E41"/>
<path d="M129.262 101.719L126.382 148.104L126.782 148.132L129.662 101.747L129.262 101.719Z" fill="#2F2E41"/>
<path d="M92.9478 101.719L92.5474 101.746L95.4103 148.132L95.8107 148.105L92.9478 101.719Z" fill="#2F2E41"/>
<path d="M211 185.261H0V185.758H211V185.261Z" fill="#2F2E41"/>
<path d="M47.1567 87.7585H14.188V88.2558H47.1567V87.7585Z" fill="#F2F2F2"/>
<path d="M23.6076 83.2824H23.1366V87.8828H23.6076V83.2824Z" fill="#F2F2F2"/>
<path d="M37.9726 83.2824H37.5016V87.8828H37.9726V83.2824Z" fill="#F2F2F2"/>
<path d="M58.6958 14.1514H25.727V14.6488H58.6958V14.1514Z" fill="#F2F2F2"/>
<path d="M49.7471 14.5244H49.2762V19.1249H49.7471V14.5244Z" fill="#F2F2F2"/>
<path d="M35.3822 14.5244H34.9112V19.1249H35.3822V14.5244Z" fill="#F2F2F2"/>
<path d="M91.9 63.1399H58.9313V63.6373H91.9V63.1399Z" fill="#F2F2F2"/>
<path d="M82.9514 63.5129H82.4804V68.1134H82.9514V63.5129Z" fill="#F2F2F2"/>
<path d="M68.5864 63.5129H68.1154V68.1134H68.5864V63.5129Z" fill="#F2F2F2"/>
<path d="M35.8532 62.8912H2.88441V63.3886H35.8532V62.8912Z" fill="#F2F2F2"/>
<path d="M26.9045 63.2643H26.4335V67.8647H26.9045V63.2643Z" fill="#F2F2F2"/>
<path d="M12.5395 63.2643H12.0686V67.8647H12.5395V63.2643Z" fill="#F2F2F2"/>
<path d="M75.4157 38.024H42.4469V38.5213H75.4157V38.024Z" fill="#F2F2F2"/>
<path d="M51.8666 33.5479H51.3956V38.1483H51.8666V33.5479Z" fill="#F2F2F2"/>
<path d="M66.2315 33.5479H65.7605V38.1483H66.2315V33.5479Z" fill="#F2F2F2"/>
</g>
<defs>
<clipPath id="clip0">
<rect width="211" height="186" fill="white"/>
</clipPath>
</defs>
</svg>

