<svg width="113" height="113" viewBox="0 0 113 113" fill="none" xmlns="http://www.w3.org/2000/svg">
<path fill-rule="evenodd" clip-rule="evenodd" d="M101.7 56.5C101.7 68.4878 96.9379 79.9846 88.4612 88.4612C79.9846 96.9379 68.4878 101.7 56.5 101.7C44.5122 101.7 33.0154 96.9379 24.5388 88.4612C16.0621 79.9846 11.3 68.4878 11.3 56.5C11.3 44.5122 16.0621 33.0154 24.5388 24.5388C33.0154 16.0621 44.5122 11.3 56.5 11.3C68.4878 11.3 79.9846 16.0621 88.4612 24.5388C96.9379 33.0154 101.7 44.5122 101.7 56.5ZM67.8 39.55C67.8 42.5469 66.6095 45.4211 64.4903 47.5403C62.3711 49.6595 59.4969 50.85 56.5 50.85C53.503 50.85 50.6288 49.6595 48.5097 47.5403C46.3905 45.4211 45.2 42.5469 45.2 39.55C45.2 36.553 46.3905 33.6788 48.5097 31.5597C50.6288 29.4405 53.503 28.25 56.5 28.25C59.4969 28.25 62.3711 29.4405 64.4903 31.5597C66.6095 33.6788 67.8 36.553 67.8 39.55ZM56.5 62.15C51.0907 62.1489 45.7948 63.7008 41.2417 66.6214C36.6886 69.542 33.0697 73.7083 30.8151 78.6254C33.9942 82.3239 37.9356 85.291 42.369 87.3234C46.8024 89.3558 51.6229 90.4053 56.5 90.4C61.377 90.4053 66.1975 89.3558 70.6309 87.3234C75.0644 85.291 79.0058 82.3239 82.1849 78.6254C79.9303 73.7083 76.3114 69.542 71.7583 66.6214C67.2052 63.7008 61.9093 62.1489 56.5 62.15Z" fill="#008A7B"/>
<path fill-rule="evenodd" clip-rule="evenodd" d="M99 110.2C101.97 110.2 104.819 109.02 106.92 106.92C109.02 104.819 110.2 101.97 110.2 99C110.2 96.0296 109.02 93.1808 106.92 91.0804C104.819 88.98 101.97 87.8 99 87.8C96.0296 87.8 93.1808 88.98 91.0804 91.0804C88.98 93.1808 87.8 96.0296 87.8 99C87.8 101.97 88.98 104.819 91.0804 106.92C93.1808 109.02 96.0296 110.2 99 110.2ZM100.4 94.8C100.4 94.4287 100.252 94.0726 99.9899 93.81C99.7274 93.5475 99.3713 93.4 99 93.4C98.6287 93.4 98.2726 93.5475 98.01 93.81C97.7475 94.0726 97.6 94.4287 97.6 94.8V97.6H94.8C94.4287 97.6 94.0726 97.7475 93.81 98.01C93.5475 98.2726 93.4 98.6287 93.4 99C93.4 99.3713 93.5475 99.7274 93.81 99.9899C94.0726 100.252 94.4287 100.4 94.8 100.4H97.6V103.2C97.6 103.571 97.7475 103.927 98.01 104.19C98.2726 104.452 98.6287 104.6 99 104.6C99.3713 104.6 99.7274 104.452 99.9899 104.19C100.252 103.927 100.4 103.571 100.4 103.2V100.4H103.2C103.571 100.4 103.927 100.252 104.19 99.9899C104.452 99.7274 104.6 99.3713 104.6 99C104.6 98.6287 104.452 98.2726 104.19 98.01C103.927 97.7475 103.571 97.6 103.2 97.6H100.4V94.8Z" fill="#008A7B"/>
</svg>
