<svg width="254" height="182" viewBox="0 0 254 182" fill="none" xmlns="http://www.w3.org/2000/svg">
<g clip-path="url(#clip0)">
<path opacity="0.1" d="M249.978 122.357C244.087 134.524 232.125 142.659 219.728 148.024C203.039 155.25 184.66 158.115 166.534 156.903C163.358 156.692 160.191 156.354 157.034 155.889C146.068 154.287 135.377 151.171 125.267 146.628C122.349 145.313 119.491 143.876 116.691 142.32C112.015 139.725 107.534 136.791 103.286 133.543C102.217 132.726 101.163 131.888 100.124 131.03C99.4032 130.435 98.6892 129.827 97.9642 129.236C96.4343 127.991 94.8601 126.808 93.104 125.922C92.5742 125.655 92.031 125.415 91.4766 125.203C85.9157 123.085 79.5035 123.885 73.7143 125.536C69.3108 126.792 65.0183 128.513 60.6193 129.74C58.6626 130.303 56.6688 130.727 54.6527 131.01C50.1514 131.58 45.5803 131.179 41.2473 129.831L40.877 129.716C40.2562 129.521 39.6405 129.307 39.03 129.074L38.6598 128.932C38.0685 128.704 37.4898 128.46 36.9237 128.198L36.5534 128.029C35.9621 127.754 35.3834 127.463 34.8173 127.157C34.6133 127.05 34.4115 126.935 34.212 126.826C30.9909 125.025 28.063 122.742 25.5293 120.058C25.4561 119.984 25.3874 119.909 25.3076 119.836C24.955 119.454 24.6091 119.065 24.2743 118.668C24.1502 118.522 24.026 118.375 23.904 118.224C23.5064 117.739 23.1228 117.242 22.7533 116.735C22.6979 116.661 22.6447 116.586 22.5914 116.513C21.0774 114.416 19.8222 112.143 18.8532 109.745C18.8221 109.671 18.7933 109.596 18.7667 109.523C18.4711 108.761 18.2013 107.986 17.9574 107.199C17.8576 106.87 17.7623 106.533 17.678 106.204C17.6492 106.107 17.6226 106.007 17.5982 105.909C16.3743 101.085 16.2346 96.071 16.2346 91.0855C16.2346 90.5039 16.2346 89.923 16.2346 89.343C16.2701 81.2786 16.3943 73.0766 17.5827 65.1232C17.5827 65.0677 17.5982 65.0122 17.6071 64.9589C18.0049 62.2814 18.5459 59.6272 19.2279 57.0078C19.9417 54.2593 20.8539 51.5663 21.9573 48.9501C24.6912 42.5128 28.6667 36.6548 33.0812 31.2253C44.2006 17.5627 58.7834 6.09323 75.8517 1.80022C94.2437 -2.82353 114.684 1.6071 129.52 13.4317C134.043 17.0366 138.107 21.3052 143.187 24.0688C147.621 26.475 152.812 27.4717 157.561 25.5782C161.486 24.0133 164.04 23.2364 168.448 23.4739C177.573 23.9907 186.569 25.8771 195.135 29.0699C195.48 29.1964 195.826 29.3274 196.17 29.4584C218.5 38.0111 237.695 55.0033 247.672 76.8391C247.937 77.4162 248.193 77.9978 248.441 78.5838C254.39 92.495 256.541 108.799 249.978 122.357Z" fill="#008A7B"/>
<path opacity="0.1" d="M26.6734 164.926C37.4837 164.926 46.2471 163.516 46.2471 161.778C46.2471 160.04 37.4837 158.63 26.6734 158.63C15.8631 158.63 7.09961 160.04 7.09961 161.778C7.09961 163.516 15.8631 164.926 26.6734 164.926Z" fill="#008A7B"/>
<path d="M233.692 23.9179H28.5203C26.9908 23.9179 25.751 25.1591 25.751 26.6903V140.642C25.751 142.173 26.9908 143.414 28.5203 143.414H233.692C235.222 143.414 236.462 142.173 236.462 140.642V26.6903C236.462 25.1591 235.222 23.9179 233.692 23.9179Z" fill="url(#paint0_linear)"/>
<path d="M233.382 25.5982H28.8551C27.3257 25.5982 26.0858 26.8395 26.0858 28.3707V140.244C26.0858 141.775 27.3257 143.017 28.8551 143.017H233.382C234.911 143.017 236.151 141.775 236.151 140.244V28.3707C236.151 26.8395 234.911 25.5982 233.382 25.5982Z" fill="white"/>
<path d="M233.382 25.5982H28.8551C27.3257 25.5982 26.0858 26.8395 26.0858 28.3707V140.244C26.0858 141.775 27.3257 143.017 28.8551 143.017H233.382C234.911 143.017 236.151 141.775 236.151 140.244V28.3707C236.151 26.8395 234.911 25.5982 233.382 25.5982Z" fill="white"/>
<path opacity="0.04" d="M233.382 25.5982H28.8551C27.3257 25.5982 26.0858 26.8395 26.0858 28.3707V140.244C26.0858 141.775 27.3257 143.017 28.8551 143.017H233.382C234.911 143.017 236.151 141.775 236.151 140.244V28.3707C236.151 26.8395 234.911 25.5982 233.382 25.5982Z" fill="white"/>
<path d="M235.085 24.2508H27.1523C26.8694 24.2508 26.5982 24.3633 26.3982 24.5635C26.1981 24.7638 26.0858 25.0354 26.0858 25.3185V29.8313H236.142V25.3185C236.142 25.0369 236.031 24.7666 235.833 24.5667C235.635 24.3667 235.366 24.2532 235.085 24.2508Z" fill="#5A5773"/>
<path d="M30.2808 28.4839C31.0768 28.4839 31.722 27.8379 31.722 27.0411C31.722 26.2442 31.0768 25.5982 30.2808 25.5982C29.4848 25.5982 28.8396 26.2442 28.8396 27.0411C28.8396 27.8379 29.4848 28.4839 30.2808 28.4839Z" fill="white"/>
<path d="M34.161 28.4839C34.9569 28.4839 35.6022 27.8379 35.6022 27.0411C35.6022 26.2442 34.9569 25.5982 34.161 25.5982C33.365 25.5982 32.7198 26.2442 32.7198 27.0411C32.7198 27.8379 33.365 28.4839 34.161 28.4839Z" fill="white"/>
<path d="M38.0411 28.4839C38.8371 28.4839 39.4823 27.8379 39.4823 27.0411C39.4823 26.2442 38.8371 25.5982 38.0411 25.5982C37.2452 25.5982 36.5999 26.2442 36.5999 27.0411C36.5999 27.8379 37.2452 28.4839 38.0411 28.4839Z" fill="white"/>
<path opacity="0.2" d="M99.7602 40.3263H43.3869V45.1165H99.7602V40.3263Z" fill="#008A7B"/>
<path opacity="0.1" d="M218.85 59.5339H43.3869V133.221H218.85V59.5339Z" fill="#5A5773"/>
<path opacity="0.1" d="M146.123 64.3396H143.118V58.4972C143.118 51.9046 137.868 46.424 131.283 46.3241C129.695 46.3074 128.119 46.6055 126.647 47.2011C125.174 47.7968 123.834 48.6783 122.704 49.7948C121.573 50.9113 120.675 52.2407 120.06 53.7065C119.445 55.1723 119.126 56.7454 119.121 58.3352V64.3396H116.123C114.799 64.3437 113.529 64.8724 112.592 65.8103C111.656 66.7481 111.128 68.0189 111.123 69.3452V93.3674C111.128 94.6937 111.656 95.9645 112.592 96.9023C113.529 97.8402 114.799 98.3688 116.123 98.3729H146.123C147.447 98.3688 148.716 97.8401 149.653 96.9022C150.589 95.9643 151.117 94.6935 151.12 93.3674V69.3452C151.117 68.0191 150.589 66.7483 149.653 65.8104C148.716 64.8725 147.447 64.3437 146.123 64.3396ZM132.875 79.9556V88.5594C132.877 89.015 132.707 89.4546 132.398 89.7893C132.09 90.124 131.665 90.3286 131.212 90.3618C130.975 90.3729 130.738 90.3358 130.516 90.2527C130.294 90.1696 130.091 90.0422 129.919 89.8783C129.747 89.7144 129.611 89.5173 129.517 89.299C129.424 89.0807 129.376 88.8457 129.376 88.6082V79.9512C128.565 79.5552 127.911 78.8956 127.523 78.0802C127.134 77.2647 127.033 76.3415 127.236 75.4612C127.439 74.5809 127.934 73.7954 128.641 73.233C129.347 72.6706 130.223 72.3644 131.125 72.3644C132.028 72.3644 132.903 72.6706 133.61 73.233C134.316 73.7954 134.811 74.5809 135.014 75.4612C135.217 76.3415 135.116 77.2647 134.727 78.0802C134.339 78.8956 133.686 79.5552 132.875 79.9512V79.9556ZM139.624 64.3396H122.62V58.3352C122.62 56.0786 123.515 53.9145 125.109 52.3189C126.703 50.7233 128.865 49.8269 131.118 49.8269C133.372 49.8269 135.534 50.7233 137.128 52.3189C138.722 53.9145 139.617 56.0786 139.617 58.3352L139.624 64.3396Z" fill="black"/>
<path d="M146.123 63.8957H143.118V58.0533C143.118 51.4606 137.868 45.98 131.283 45.8801C129.695 45.8634 128.119 46.1615 126.647 46.7572C125.174 47.3528 123.834 48.2343 122.704 49.3508C121.573 50.4673 120.675 51.7968 120.06 53.2625C119.445 54.7283 119.126 56.3014 119.121 57.8912V63.8957H116.123C114.799 63.8998 113.529 64.4285 112.592 65.3663C111.656 66.3041 111.128 67.5749 111.123 68.9012V92.9234C111.128 94.2497 111.656 95.5205 112.592 96.4583C113.529 97.3962 114.799 97.9249 116.123 97.929H146.123C147.447 97.9249 148.716 97.3961 149.653 96.4582C150.589 95.5203 151.117 94.2495 151.12 92.9234V68.9012C151.117 67.5751 150.589 66.3043 149.653 65.3664C148.716 64.4285 147.447 63.8998 146.123 63.8957ZM132.875 79.5116V88.1154C132.877 88.571 132.707 89.0106 132.398 89.3453C132.09 89.68 131.665 89.8846 131.212 89.9179C130.975 89.929 130.738 89.8918 130.516 89.8087C130.294 89.7256 130.091 89.5982 129.919 89.4343C129.747 89.2704 129.611 89.0733 129.517 88.855C129.424 88.6367 129.376 88.4017 129.376 88.1643V79.5072C128.565 79.1112 127.911 78.4516 127.523 77.6362C127.134 76.8207 127.033 75.8975 127.236 75.0172C127.439 74.1369 127.934 73.3515 128.641 72.789C129.347 72.2266 130.223 71.9204 131.125 71.9204C132.028 71.9204 132.903 72.2266 133.61 72.789C134.316 73.3515 134.811 74.1369 135.014 75.0172C135.217 75.8975 135.116 76.8207 134.727 77.6362C134.339 78.4516 133.686 79.1112 132.875 79.5072V79.5116ZM139.624 63.8957H122.62V57.8912C122.62 55.6347 123.515 53.4706 125.109 51.8749C126.703 50.2793 128.865 49.3829 131.118 49.3829C133.372 49.3829 135.534 50.2793 137.128 51.8749C138.722 53.4706 139.617 55.6347 139.617 57.8912L139.624 63.8957Z" fill="#008A7B"/>
<path opacity="0.1" d="M218.85 52.4417H201.09V56.6393H218.85V52.4417Z" fill="#5A5773"/>
<path opacity="0.1" d="M191.658 100.568C191.642 100.867 191.599 101.164 191.532 101.456C191.532 101.374 191.532 101.327 191.514 101.321C191.447 101.303 191.527 100.963 191.658 100.568Z" fill="black"/>
<g opacity="0.1">
<path opacity="0.1" d="M198.006 66.3618C198.019 65.9934 198.15 65.639 198.382 65.352C198.613 65.065 198.931 64.8609 199.288 64.7703C200.276 64.5283 201.314 64.5753 202.276 64.9057C204.381 65.6027 202.01 68.111 202.01 68.111C202.01 68.111 200.434 69.6648 198.964 68.5794C198.53 68.2508 198.226 67.779 198.106 67.2475C198.034 66.958 198 66.6602 198.006 66.3618Z" fill="black"/>
<path opacity="0.1" d="M209.573 66.3618C209.56 65.9931 209.428 65.6385 209.197 65.3515C208.965 65.0644 208.647 64.8605 208.29 64.7702C207.302 64.5287 206.265 64.5757 205.303 64.9057C203.199 65.6027 205.569 68.111 205.569 68.111C205.569 68.111 207.143 69.6648 208.615 68.5794C209.05 68.2508 209.354 67.779 209.474 67.2475C209.545 66.9579 209.579 66.6601 209.573 66.3618Z" fill="black"/>
<path opacity="0.1" d="M201.879 64.7014V64.8058H205.722V64.6815L201.879 64.7014Z" fill="black"/>
<path opacity="0.1" d="M203.106 65.8135H203.227V65.4606C203.227 65.4606 203.618 65.1565 204.265 65.4606V65.7758H204.487V65.5693H204.378C204.378 65.5693 204.423 65.1409 203.7 65.2098C203.7 65.2098 203.119 65.1543 203.132 65.5227H202.999L203.106 65.8135Z" fill="black"/>
</g>
<path d="M27.3031 101.485H26.0437V129.876H27.3031V101.485Z" fill="#535461"/>
<path d="M35.2186 129.789L35.1388 131.068L35.0279 132.872L34.9814 133.625L34.8705 135.432L34.8217 136.184L34.7109 137.989L33.4404 158.515C33.3862 159.398 32.9975 160.228 32.3535 160.834C31.7096 161.44 30.8589 161.778 29.9748 161.778H23.3719C22.4881 161.778 21.6377 161.44 20.9941 160.834C20.3505 160.228 19.9622 159.398 19.9086 158.515L18.6315 137.989L18.5206 136.184L18.474 135.432L18.3654 133.62L18.3188 132.868L18.208 131.063L18.1281 129.785C18.113 129.539 18.1482 129.293 18.2317 129.062C18.3151 128.831 18.4449 128.619 18.6132 128.44C18.7815 128.261 18.9846 128.118 19.2101 128.021C19.4355 127.924 19.6785 127.873 19.9241 127.873H33.4249C33.6707 127.873 33.9141 127.924 34.1397 128.021C34.3654 128.119 34.5686 128.262 34.7368 128.442C34.9049 128.621 35.0345 128.834 35.1173 129.065C35.2002 129.297 35.2347 129.543 35.2186 129.789Z" fill="#3F3D56"/>
<path d="M35.1388 131.068L35.0279 132.872H18.3166L18.2057 131.068H35.1388Z" fill="#9D9CB5"/>
<path d="M34.9813 133.625L34.8705 135.432H18.4762L18.3632 133.625H34.9813Z" fill="#9D9CB5"/>
<path d="M34.8217 136.184L34.7109 137.989H18.6359L18.5228 136.184H34.8217Z" fill="#9D9CB5"/>
<path d="M16.2834 112.127C23.618 117.438 26.6734 125.749 26.6734 125.749C26.6734 125.749 17.8332 125.445 10.4875 120.133C3.14183 114.821 0.0975647 106.511 0.0975647 106.511C0.0975647 106.511 8.94656 106.815 16.2834 112.127Z" fill="#008A7B"/>
<path d="M0.108643 106.511C0.108643 106.511 9.28357 111.616 12.2258 115.834C15.1681 120.051 26.6734 125.751 26.6734 125.751" stroke="#535461" stroke-width="2" stroke-miterlimit="10"/>
<path d="M21.0172 101.434C25.0082 104.32 26.6734 108.848 26.6734 108.848C26.6734 108.848 21.862 108.684 17.8687 105.791C13.8755 102.899 12.2148 98.3774 12.2148 98.3774C12.2148 98.3774 17.0262 98.5305 21.0172 101.434Z" fill="#008A7B"/>
<path d="M12.2148 98.3663C12.2148 98.3663 17.208 101.141 18.8088 103.438C20.4097 105.736 26.6734 108.837 26.6734 108.837" stroke="#535461" stroke-width="2" stroke-miterlimit="10"/>
<path d="M32.4759 108.608C27.8884 113.654 26.9195 120.246 26.9195 120.246C26.9195 120.246 33.3849 118.659 37.9702 113.614C42.5554 108.568 43.5266 101.973 43.5266 101.973C43.5266 101.973 37.0611 103.56 32.4759 108.608Z" fill="#008A7B"/>
<path d="M43.5266 101.973C43.5266 101.973 37.5533 107.145 36.0345 110.71C34.5157 114.275 26.9195 120.255 26.9195 120.255" stroke="#535461" stroke-width="2" stroke-miterlimit="10"/>
</g>
<defs>
<linearGradient id="paint0_linear" x1="131.105" y1="143.414" x2="131.105" y2="23.9179" gradientUnits="userSpaceOnUse">
<stop stop-color="#808080" stop-opacity="0.25"/>
<stop offset="0.54" stop-color="#808080" stop-opacity="0.12"/>
<stop offset="1" stop-color="#808080" stop-opacity="0.1"/>
</linearGradient>
<clipPath id="clip0">
<rect width="254" height="182" fill="white"/>
</clipPath>
</defs>
</svg>
